<svg xmlns="http://www.w3.org/2000/svg" xml:space="preserve" style="fill-rule:evenodd;clip-rule:evenodd;stroke-linecap:round;stroke-linejoin:round;stroke-miterlimit:1.5;color:#e5e7eb;fill:currentColor" viewBox="0 0 368 70"><style>[style*=&quot;stroke:black&quot;]{stroke:currentColor!important}</style><path d="M128 128h16v16h-16z" style="fill:rgba(99,102,241,.75)" transform="translate(-112 -107.921)"/><path d="M128 128h16v16h-16z" style="fill:rgba(99,102,241,.75)" transform="translate(-80 -107.921)"/><path d="M128 128h16v16h-16z" style="fill:rgba(99,102,241,.75)" transform="translate(-48 -107.921)"/><path d="M128 128h16v16h-16z" style="fill:rgba(99,102,241,.75)" transform="translate(-16 -107.921)"/><path d="M128 128h16v16h-16z" style="fill:rgba(99,102,241,.75)" transform="translate(16 -107.921)"/><path d="M128 128h16v16h-16z" style="fill:rgba(99,102,241,.75)" transform="translate(48 -107.921)"/><path d="M128 128h16v16h-16z" style="fill:rgba(99,102,241,.75)" transform="translate(80 -107.921)"/><path d="M128 128h16v16h-16z" style="fill:rgba(99,102,241,.75)" transform="translate(112 -107.921)"/><path d="M128 128h16v16h-16z" style="fill:rgba(99,102,241,.75)" transform="translate(144 -107.921)"/><path d="M128 128h16v16h-16z" style="fill:rgba(99,102,241,.75)" transform="translate(176 -107.921)"/><text x="136.736" y="136.459" style="font-family:&quot;ArialMT&quot;,&quot;Arial&quot;,sans-serif;font-size:12px" transform="translate(-116.726 -104.085)">X</text><text x="136.736" y="136.459" style="font-family:&quot;ArialMT&quot;,&quot;Arial&quot;,sans-serif;font-size:12px" transform="translate(-84.726 -104.085)">X</text><text x="136.736" y="136.459" style="font-family:&quot;ArialMT&quot;,&quot;Arial&quot;,sans-serif;font-size:12px" transform="translate(-52.726 -104.085)">X</text><text x="136.736" y="136.459" style="font-family:&quot;ArialMT&quot;,&quot;Arial&quot;,sans-serif;font-size:12px" transform="translate(-20.726 -104.085)">X</text><text x="136.736" y="136.459" style="font-family:&quot;ArialMT&quot;,&quot;Arial&quot;,sans-serif;font-size:12px" transform="translate(11.274 -104.085)">X</text><text x="136.736" y="136.459" style="font-family:&quot;ArialMT&quot;,&quot;Arial&quot;,sans-serif;font-size:12px" transform="translate(43.274 -104.085)">X</text><text x="136.736" y="136.459" style="font-family:&quot;ArialMT&quot;,&quot;Arial&quot;,sans-serif;font-size:12px" transform="translate(75.274 -104.085)">X</text><text x="136.736" y="136.459" style="font-family:&quot;ArialMT&quot;,&quot;Arial&quot;,sans-serif;font-size:12px" transform="translate(107.274 -104.085)">X</text><text x="136.736" y="136.459" style="font-family:&quot;ArialMT&quot;,&quot;Arial&quot;,sans-serif;font-size:12px" transform="translate(139.274 -104.085)">X</text><text x="136.736" y="136.459" style="font-family:&quot;ArialMT&quot;,&quot;Arial&quot;,sans-serif;font-size:12px" transform="translate(171.274 -104.085)">X</text><path d="M128 128h16v16h-16z" style="fill:rgba(99,102,241,.75)" transform="translate(-96 -107.921)"/><path d="M128 128h16v16h-16z" style="fill:rgba(99,102,241,.75)" transform="translate(-64 -107.921)"/><path d="M128 128h16v16h-16z" style="fill:rgba(99,102,241,.75)" transform="translate(-32 -107.921)"/><path d="M128 128h16v16h-16z" style="fill:rgba(99,102,241,.75)" transform="translate(0 -107.921)"/><path d="M128 128h16v16h-16z" style="fill:rgba(99,102,241,.75)" transform="translate(32 -107.921)"/><path d="M128 128h16v16h-16z" style="fill:rgba(99,102,241,.75)" transform="translate(64 -107.921)"/><path d="M128 128h16v16h-16z" style="fill:rgba(99,102,241,.75)" transform="translate(96 -107.921)"/><path d="M128 128h16v16h-16z" style="fill:rgba(99,102,241,.75)" transform="translate(128 -107.921)"/><path d="M128 128h16v16h-16z" style="fill:rgba(99,102,241,.75)" transform="translate(160 -107.921)"/><path d="M128 128h16v16h-16z" style="fill:rgba(99,102,241,.75)" transform="translate(192 -107.921)"/><text x="136.736" y="136.459" style="font-family:&quot;ArialMT&quot;,&quot;Arial&quot;,sans-serif;font-size:12px" transform="translate(-100.726 -104.085)">Y</text><text x="136.736" y="136.459" style="font-family:&quot;ArialMT&quot;,&quot;Arial&quot;,sans-serif;font-size:12px" transform="translate(-68.726 -104.085)">Y</text><text x="136.736" y="136.459" style="font-family:&quot;ArialMT&quot;,&quot;Arial&quot;,sans-serif;font-size:12px" transform="translate(-36.726 -104.085)">Y</text><text x="136.736" y="136.459" style="font-family:&quot;ArialMT&quot;,&quot;Arial&quot;,sans-serif;font-size:12px" transform="translate(-4.726 -104.085)">Y</text><text x="136.736" y="136.459" style="font-family:&quot;ArialMT&quot;,&quot;Arial&quot;,sans-serif;font-size:12px" transform="translate(27.274 -104.085)">Y</text><text x="136.736" y="136.459" style="font-family:&quot;ArialMT&quot;,&quot;Arial&quot;,sans-serif;font-size:12px" transform="translate(59.274 -104.085)">Y</text><text x="136.736" y="136.459" style="font-family:&quot;ArialMT&quot;,&quot;Arial&quot;,sans-serif;font-size:12px" transform="translate(91.274 -104.085)">Y</text><text x="136.736" y="136.459" style="font-family:&quot;ArialMT&quot;,&quot;Arial&quot;,sans-serif;font-size:12px" transform="translate(123.274 -104.085)">Y</text><text x="136.736" y="136.459" style="font-family:&quot;ArialMT&quot;,&quot;Arial&quot;,sans-serif;font-size:12px" transform="translate(155.274 -104.085)">Y</text><text x="136.736" y="136.459" style="font-family:&quot;ArialMT&quot;,&quot;Arial&quot;,sans-serif;font-size:12px" transform="translate(187.274 -104.085)">Y</text><path d="M464 128h-16v16h16" style="fill:none;stroke:#000;stroke-width:.5px" transform="translate(-112 -107.921)"/><path d="M39.548 40.389 48 36.079l-4.176 8.519z"/><path d="M16 36.079s7.005 10.438 15.772 10.438c3.991 0 8.095-2.668 11.177-5.307" style="fill:none;stroke:#000;stroke-width:.5px"/><path d="M71.548 40.389 80 36.079l-4.176 8.519z" style="fill-opacity:.2"/><path d="M48 36.079s7.005 10.438 15.772 10.438c3.991 0 8.095-2.668 11.177-5.307" style="fill:none;stroke:#000;stroke-opacity:.2;stroke-width:.5px"/><path d="m103.548 40.389 8.452-4.31-4.176 8.519z" style="fill-opacity:.2"/><path d="M80 36.079s7.005 10.438 15.772 10.438c3.991 0 8.095-2.668 11.177-5.307" style="fill:none;stroke:#000;stroke-opacity:.2;stroke-width:.5px"/><path d="m135.548 40.389 8.452-4.31-4.176 8.519z" style="fill-opacity:.2"/><path d="M112 36.079s7.005 10.438 15.772 10.438c3.991 0 8.095-2.668 11.177-5.307" style="fill:none;stroke:#000;stroke-opacity:.2;stroke-width:.5px"/><path d="m167.548 40.389 8.452-4.31-4.176 8.519z" style="fill-opacity:.2"/><path d="M144 36.079s7.005 10.438 15.772 10.438c3.991 0 8.095-2.668 11.177-5.307" style="fill:none;stroke:#000;stroke-opacity:.2;stroke-width:.5px"/><path d="m199.548 40.389 8.452-4.31-4.176 8.519z" style="fill-opacity:.2"/><path d="M176 36.079s7.005 10.438 15.772 10.438c3.991 0 8.095-2.668 11.177-5.307" style="fill:none;stroke:#000;stroke-opacity:.2;stroke-width:.5px"/><path d="m231.548 40.389 8.452-4.31-4.176 8.519z" style="fill-opacity:.2"/><path d="M208 36.079s7.005 10.438 15.772 10.438c3.991 0 8.095-2.668 11.177-5.307" style="fill:none;stroke:#000;stroke-opacity:.2;stroke-width:.5px"/><path d="m263.548 40.389 8.452-4.31-4.176 8.519z" style="fill-opacity:.2"/><path d="M240 36.079s7.005 10.438 15.772 10.438c3.991 0 8.095-2.668 11.177-5.307" style="fill:none;stroke:#000;stroke-opacity:.2;stroke-width:.5px"/><path d="m295.548 40.389 8.452-4.31-4.176 8.519z" style="fill-opacity:.2"/><path d="M272 36.079s7.005 10.438 15.772 10.438c3.991 0 8.095-2.668 11.177-5.307" style="fill:none;stroke:#000;stroke-opacity:.2;stroke-width:.5px"/><path d="m327.548 40.389 8.452-4.31-4.176 8.519z" style="fill-opacity:.2"/><path d="M304 36.079s7.005 10.438 15.772 10.438c3.991 0 8.095-2.668 11.177-5.307" style="fill:none;stroke:#000;stroke-opacity:.2;stroke-width:.5px"/><text x="151.875" y="106.537" style="font-family:&quot;ArialMT&quot;,&quot;Arial&quot;,sans-serif;font-size:12px" transform="translate(-134.528 -45.868)">arrayStride</text><path d="M128 123.921h32V128h-32z" style="fill:rgba(99,102,241,.75);stroke:#000;stroke-width:.39px" transform="matrix(1 0 0 1.49086 -112 -170.751)"/><path d="M128 123.921h32V128h-32z" style="fill:rgba(99,102,241,.75);stroke:#000;stroke-width:.39px" transform="matrix(1 0 0 1.49086 -80 -170.751)"/><path d="M128 123.921h32V128h-32z" style="fill:rgba(99,102,241,.75);stroke:#000;stroke-width:.39px" transform="matrix(1 0 0 1.49086 -48 -170.751)"/><path d="M128 123.921h32V128h-32z" style="fill:rgba(99,102,241,.75);stroke:#000;stroke-width:.39px" transform="matrix(1 0 0 1.49086 -16 -170.751)"/><path d="M128 123.921h32V128h-32z" style="fill:rgba(99,102,241,.75);stroke:#000;stroke-width:.39px" transform="matrix(1 0 0 1.49086 16 -170.751)"/><path d="M128 123.921h32V128h-32z" style="fill:rgba(99,102,241,.75);stroke:#000;stroke-width:.39px" transform="matrix(1 0 0 1.49086 48 -170.751)"/><path d="M128 123.921h32V128h-32z" style="fill:rgba(99,102,241,.75);stroke:#000;stroke-width:.39px" transform="matrix(1 0 0 1.49086 80 -170.751)"/><path d="M128 123.921h32V128h-32z" style="fill:rgba(99,102,241,.75);stroke:#000;stroke-width:.39px" transform="matrix(1 0 0 1.49086 112 -170.751)"/><path d="M128 123.921h32V128h-32z" style="fill:rgba(99,102,241,.75);stroke:#000;stroke-width:.39px" transform="matrix(1 0 0 1.49086 144 -170.751)"/><path d="M128 123.921h32V128h-32z" style="fill:rgba(99,102,241,.75);stroke:#000;stroke-width:.39px" transform="matrix(1 0 0 1.49086 176 -170.751)"/><text x="130.106" y="126.18" style="font-family:&quot;ArialMT&quot;,&quot;Arial&quot;,sans-serif;font-size:4.5px" transform="translate(-111.738 -107.951)">vec2f position</text><text x="130.106" y="126.18" style="font-family:&quot;ArialMT&quot;,&quot;Arial&quot;,sans-serif;font-size:4.5px" transform="translate(-79.738 -107.951)">vec2f position</text><text x="130.106" y="126.18" style="font-family:&quot;ArialMT&quot;,&quot;Arial&quot;,sans-serif;font-size:4.5px" transform="translate(-47.738 -107.951)">vec2f position</text><text x="130.106" y="126.18" style="font-family:&quot;ArialMT&quot;,&quot;Arial&quot;,sans-serif;font-size:4.5px" transform="translate(-15.738 -107.951)">vec2f position</text><text x="130.106" y="126.18" style="font-family:&quot;ArialMT&quot;,&quot;Arial&quot;,sans-serif;font-size:4.5px" transform="translate(16.262 -107.951)">vec2f position</text><text x="130.106" y="126.18" style="font-family:&quot;ArialMT&quot;,&quot;Arial&quot;,sans-serif;font-size:4.5px" transform="translate(48.262 -107.951)">vec2f position</text><text x="130.106" y="126.18" style="font-family:&quot;ArialMT&quot;,&quot;Arial&quot;,sans-serif;font-size:4.5px" transform="translate(80.262 -107.951)">vec2f position</text><text x="130.106" y="126.18" style="font-family:&quot;ArialMT&quot;,&quot;Arial&quot;,sans-serif;font-size:4.5px" transform="translate(112.262 -107.951)">vec2f position</text><text x="130.106" y="126.18" style="font-family:&quot;ArialMT&quot;,&quot;Arial&quot;,sans-serif;font-size:4.5px" transform="translate(144.262 -107.951)">vec2f position</text><text x="130.106" y="126.18" style="font-family:&quot;ArialMT&quot;,&quot;Arial&quot;,sans-serif;font-size:4.5px" transform="translate(176.262 -107.951)">vec2f position</text><path d="m144 127.35-.045 16.65" style="fill:none;stroke:#000;stroke-opacity:.2;stroke-width:.51px;stroke-linecap:butt" transform="matrix(1 .0001 .0001 .96098 -112.015 -102.318)"/><path d="m144 127.35-.045 16.65" style="fill:none;stroke:#000;stroke-opacity:.2;stroke-width:.51px;stroke-linecap:butt" transform="matrix(1 .0001 .0001 .96098 -80.015 -102.318)"/><path d="m144 127.35-.045 16.65" style="fill:none;stroke:#000;stroke-opacity:.2;stroke-width:.51px;stroke-linecap:butt" transform="matrix(1 .0001 .0001 .96098 -48.015 -102.318)"/><path d="m144 127.35-.045 16.65" style="fill:none;stroke:#000;stroke-opacity:.2;stroke-width:.51px;stroke-linecap:butt" transform="matrix(1 .0001 .0001 .96098 -16.015 -102.318)"/><path d="m144 127.35-.045 16.65" style="fill:none;stroke:#000;stroke-opacity:.2;stroke-width:.51px;stroke-linecap:butt" transform="matrix(1 .0001 .0001 .96098 15.985 -102.318)"/><path d="m144 127.35-.045 16.65" style="fill:none;stroke:#000;stroke-opacity:.2;stroke-width:.51px;stroke-linecap:butt" transform="matrix(1 .0001 .0001 .96098 47.985 -102.318)"/><path d="m144 127.35-.045 16.65" style="fill:none;stroke:#000;stroke-opacity:.2;stroke-width:.51px;stroke-linecap:butt" transform="matrix(1 .0001 .0001 .96098 79.985 -102.318)"/><path d="m144 127.35-.045 16.65" style="fill:none;stroke:#000;stroke-opacity:.2;stroke-width:.51px;stroke-linecap:butt" transform="matrix(1 .0001 .0001 .96098 111.985 -102.318)"/><path d="m144 127.35-.045 16.65" style="fill:none;stroke:#000;stroke-opacity:.2;stroke-width:.51px;stroke-linecap:butt" transform="matrix(1 .0001 .0001 .96098 143.985 -102.318)"/><path d="m144 127.35-.045 16.65" style="fill:none;stroke:#000;stroke-opacity:.2;stroke-width:.51px;stroke-linecap:butt" transform="matrix(1 .0001 .0001 .96098 175.985 -102.318)"/><path d="M128 128h32v16h-32z" style="fill:none;stroke:#000;stroke-width:.5px;stroke-linecap:butt" transform="translate(-112 -107.921)"/><path d="M128 128h32v16h-32z" style="fill:none;stroke:#000;stroke-width:.5px;stroke-linecap:butt" transform="translate(-80 -107.921)"/><path d="M128 128h32v16h-32z" style="fill:none;stroke:#000;stroke-width:.5px;stroke-linecap:butt" transform="translate(-48 -107.921)"/><path d="M128 128h32v16h-32z" style="fill:none;stroke:#000;stroke-width:.5px;stroke-linecap:butt" transform="translate(-16 -107.921)"/><path d="M128 128h32v16h-32z" style="fill:none;stroke:#000;stroke-width:.5px;stroke-linecap:butt" transform="translate(16 -107.921)"/><path d="M128 128h32v16h-32z" style="fill:none;stroke:#000;stroke-width:.5px;stroke-linecap:butt" transform="translate(48 -107.921)"/><path d="M128 128h32v16h-32z" style="fill:none;stroke:#000;stroke-width:.5px;stroke-linecap:butt" transform="translate(80 -107.921)"/><path d="M128 128h32v16h-32z" style="fill:none;stroke:#000;stroke-width:.5px;stroke-linecap:butt" transform="translate(112 -107.921)"/><path d="M128 128h32v16h-32z" style="fill:none;stroke:#000;stroke-width:.5px;stroke-linecap:butt" transform="translate(144 -107.921)"/><path d="M128 128h32v16h-32z" style="fill:none;stroke:#000;stroke-width:.5px;stroke-linecap:butt" transform="translate(176 -107.921)"/><path d="M448 123.921h16" style="fill:none;stroke:currentColor!important;stroke-width:.5px;stroke-linecap:butt" transform="translate(-112 -109.923)"/></svg>